<svg xmlns="http://www.w3.org/2000/svg" viewBox="0 0 3565.9 1780.5"><path d="M3388.4 586c-3.5 30.9-16.9 55.8-32.1 83l-2.8 4c-31.7 52.7-80.4 107.5-158.2 145.9-38.1 18.8-81.9 34.8-134.9 42.1 0 0 2.7 1.8 4.9 3.3 13.8 9.7 69.7 47.7 113.5 127.6 34.3 62.5 59.8 148.6 56.8 258.3 0 1-.1 2-.1 3.1.4 12.5-1.7 114.5-58.3 192.2-45.5 62.4-118.1 118.5-217.5 141.1l74.8 92c5.3 6.7 1.6 16.4-7 16.4h-650.9c-.4 0-.7 0-1.1-.1-2.6-.3-5.1-1.6-6.7-3.7l-351.2-426.6-5.4-6.6-273.2 212.5c-1.8 1.4-4 2.1-6.1 2.1l-490.2.3c-4.8 0-8.9-3.3-9.9-8L1213 1372l-244 319.5a8.43 8.43 0 01-6.7 3.3H180.4c-4.7 0-8.4-3.8-8.4-8.4 0-1.7.5-3.4 1.5-4.8l845.7-1206.5-80.5-375.3c-1.2-5.5 2.3-10.8 7.8-12.1.7-.2 1.4-.3 2.2-.3l654.5-1.8c4.6 0 8.7 3.1 9.9 7.6l183.7 699.6 270.3-321.5c3.6-4.3 10-4.9 14.3-1.3.5.5 1 .9 1.4 1.4l169 214.3 1 1.3 239.1-596.5c.5-1.4 1.4.2 2.5-.8 1.1-.7 2.4-4 3.9-4h654.3c2.3.5 4.2 1.1 5 1.3h.1c.1 0 .2.1.2.1h.1c3.6 1.5 14.7 6.7 14.8 6.8.1.1 103.1 42.3 163.2 158.8 34.6 67.1 58 154.3 58 256.2v12.7c0 3.9-5.6 64.4-5.6 64.4z" fill="#fff"/><path d="M7310.5 586c-3.5 30.9-16.9 55.8-32.1 83l-2.8 4c-31.7 52.7-80.4 107.5-158.2 145.9-38.1 18.8-81.9 34.8-134.9 42.1 0 0 2.7 1.8 4.9 3.3 13.8 9.7 69.7 47.7 113.5 127.6 34.3 62.5 59.8 148.6 56.8 258.3 0 1-.1 2-.1 3.1.4 12.5-1.7 114.5-58.3 192.2-45.5 62.4-118.1 118.5-217.5 141.1l74.8 92c5.3 6.7 1.6 16.4-7 16.4h-650.9c-.4 0-.7 0-1.1-.1-2.6-.3-5.1-1.6-6.7-3.7l-351.2-426.6-5.4-6.6-273.3 212.6c-1.8 1.4-4 2.1-6.1 2.1l-490.2.3c-4.8 0-8.9-3.3-9.9-8l-19.8-92.9-243.9 319.6a8.43 8.43 0 01-6.7 3.3h-781.9c-4.7 0-8.4-3.8-8.4-8.4 0-1.7.5-3.4 1.5-4.8l845.7-1206.5-80.6-375.4c-1.2-5.5 2.3-10.8 7.8-12.1.7-.2 1.4-.3 2.2-.3l654.5-1.8c4.6 0 8.7 3.1 9.9 7.6l183.7 699.6 270.3-321.5c3.6-4.3 10-4.9 14.3-1.3.5.5 1 .9 1.4 1.4l169 214.3 1 1.3 239.1-596.5c.5-1.4 1.4.2 2.5-.8 1.1-.7 2.4-4 3.9-4h654.3c2.3.5 4.2 1.1 5 1.3h.1c.1 0 .2.1.2.1h.1c3.6 1.5 14.7 6.7 14.8 6.8.1.1 103.1 42.3 163.2 158.8 34.6 67.1 58 154.3 58 256.2v12.7c.1 3.8-5.5 64.3-5.5 64.3z" fill="#c7c7c7"/></svg>