<svg data-name="Layer 1" xmlns="http://www.w3.org/2000/svg" viewBox="0 0 3565.9 1780.5"><path d="M3388.353 586.015c-3.525 30.907-16.9 55.85-32.082 82.96l-2.802 3.977c-31.72 52.686-80.43 107.542-158.24 145.95-38.137 18.797-81.877 34.793-134.925 42.113l4.88 3.253c13.827 9.67 69.677 47.716 113.507 127.605 34.341 62.537 59.826 148.57 56.843 258.281 0 .994-.09 1.989-.09 3.073.361 12.471-1.717 114.5-58.29 192.22-45.547 62.447-118.115 118.477-217.524 141.07l74.828 91.998c5.332 6.688 1.627 16.357-6.958 16.357h-650.856a4.402 4.402 0 01-1.084-.09h0a9.832 9.832 0 01-6.687-3.705l-351.184-426.644-5.422-6.597-273.283 212.644a10.282 10.282 0 01-6.145 2.079l-490.175.27a10.155 10.155 0 01-9.941-8.042l-19.791-92.902-243.913 319.643a8.52 8.52 0 01-6.688 3.344H180.438a8.389 8.389 0 01-8.405-8.372v-.032a8.177 8.177 0 011.537-4.79l845.696-1206.459-80.612-375.403a10.197 10.197 0 017.772-12.11 8.913 8.913 0 012.17-.27l654.47-1.808a10.148 10.148 0 019.85 7.591l183.725 699.565 270.3-321.45a10.082 10.082 0 0114.195-1.336c.029.023.057.046.084.07a10.932 10.932 0 011.446 1.446l168.995 214.27.994 1.266 239.123-596.542c.542-1.446 1.446.18 2.53-.813h0c1.085-.723 2.44-3.977 3.886-3.977h654.29c2.259.543 4.157 1.085 4.97 1.266h.09a.315.315 0 01.181.09h.09c3.615 1.536 14.731 6.687 14.821 6.778s103.114 42.294 163.21 158.782c34.613 67.056 58.02 154.264 58.02 256.203v12.743c.09 3.886-5.513 64.435-5.513 64.435z" fill="#fff" stroke="#000" stroke-miterlimit="10"/></svg>