<svg data-name="Layer 1" xmlns="http://www.w3.org/2000/svg" viewBox="0 0 1366 768"><path d="M1342.078 259.193c-1.445 12.672-6.928 22.899-13.153 34.014l-1.149 1.63a153.895 153.895 0 01-64.879 59.84 177.919 177.919 0 01-55.32 17.267l2.002 1.334c5.669 3.964 28.567 19.563 46.538 52.318 14.08 25.64 24.528 60.914 23.305 105.896 0 .407-.037.815-.037 1.26.149 5.113-.704 46.945-23.898 78.81-18.675 25.603-48.428 48.576-89.186 57.839l30.68 37.72c2.186 2.741.667 6.706-2.853 6.706H927.276a1.804 1.804 0 01-.444-.037 4.031 4.031 0 01-2.742-1.52L780.104 537.347l-2.223-2.705-112.047 87.185a4.216 4.216 0 01-2.52.852l-200.972.11a4.164 4.164 0 01-4.076-3.297l-8.114-38.09-100.005 131.055a3.493 3.493 0 01-2.742 1.37H26.828a3.44 3.44 0 01-3.446-3.445 3.353 3.353 0 01.63-1.964l346.737-494.65-33.051-153.916a4.18 4.18 0 013.186-4.965 3.654 3.654 0 01.89-.111l268.333-.741a4.16 4.16 0 014.04 3.112l75.327 286.823 110.824-131.795a4.133 4.133 0 015.854-.519 4.48 4.48 0 01.593.593l69.288 87.851.407.519 98.041-244.583c.222-.593.593.074 1.037-.334.445-.296 1-1.63 1.594-1.63h268.26c.926.222 1.704.445 2.037.519h.037a.13.13 0 01.074.037h.038c1.482.63 6.04 2.742 6.076 2.779s42.277 17.34 66.917 65.1c14.191 27.494 23.788 63.25 23.788 105.044v5.225c.037 1.593-2.26 26.418-2.26 26.418z" fill="#c7c7c7"/></svg>