<?xml version="1.0" encoding="utf-8"?>
<!-- Generator: Adobe Illustrator 25.2.0, SVG Export Plug-In . SVG Version: 6.00 Build 0)  -->
<svg version="1.1" xmlns="http://www.w3.org/2000/svg" xmlns:xlink="http://www.w3.org/1999/xlink" x="0px" y="0px"
	 viewBox="0 0 3565.9 1780.5" style="enable-background:new 0 0 3565.9 1780.5;" xml:space="preserve">
<style type="text/css">
	.st0{display:none;}
	.st1{display:inline;}
	.st2{fill:#FFFFFF;}
	.st3{fill:#C7C7C7;}
	.st4{display:none;opacity:0.35;fill:url(#SVGID_1_);enable-background:new    ;}
	.st5{display:none;opacity:0.4;fill:url(#SVGID_2_);enable-background:new    ;}
	.st6{display:none;opacity:0.4;fill:url(#SVGID_3_);enable-background:new    ;}
	.st7{display:none;opacity:0.4;fill:url(#SVGID_4_);enable-background:new    ;}
	.st8{display:none;opacity:0.35;fill:url(#SVGID_5_);enable-background:new    ;}
</style>
<g id="Layer_2" class="st0">
	<rect y="-0.1" class="st1" width="3565.9" height="1780.7"/>
</g>
<g id="Layer_1">
	<path class="st2" d="M3388.4,586c-3.5,30.9-16.9,55.8-32.1,83l-2.8,4c-31.7,52.7-80.4,107.5-158.2,145.9
		c-38.1,18.8-81.9,34.8-134.9,42.1c0,0,2.7,1.8,4.9,3.3c13.8,9.7,69.7,47.7,113.5,127.6c34.3,62.5,59.8,148.6,56.8,258.3
		c0,1-0.1,2-0.1,3.1c0.4,12.5-1.7,114.5-58.3,192.2c-45.5,62.4-118.1,118.5-217.5,141.1l74.8,92c5.3,6.7,1.6,16.4-7,16.4h-650.9
		c-0.4,0-0.7,0-1.1-0.1l0,0c-2.6-0.3-5.1-1.6-6.7-3.7l-351.2-426.6l-5.4-6.6L1739,1470.5c-1.8,1.4-4,2.1-6.1,2.1l-490.2,0.3
		c-4.8,0-8.9-3.3-9.9-8l-19.8-92.9L969,1691.5c-1.6,2.1-4.1,3.3-6.7,3.3H180.4c-4.7,0-8.4-3.8-8.4-8.4c0-1.7,0.5-3.4,1.5-4.8
		l845.7-1206.5L938.7,99.8c-1.2-5.5,2.3-10.8,7.8-12.1c0.7-0.2,1.4-0.3,2.2-0.3l654.5-1.8c4.6,0,8.7,3.1,9.9,7.6l183.7,699.6
		l270.3-321.5c3.6-4.3,10-4.9,14.3-1.3c0.5,0.5,1,0.9,1.4,1.4l169,214.3l1,1.3l239.1-596.5c0.5-1.4,1.4,0.2,2.5-0.8l0,0
		c1.1-0.7,2.4-4,3.9-4h654.3c2.3,0.5,4.2,1.1,5,1.3h0.1c0.1,0,0.2,0.1,0.2,0.1h0.1c3.6,1.5,14.7,6.7,14.8,6.8
		c0.1,0.1,103.1,42.3,163.2,158.8c34.6,67.1,58,154.3,58,256.2v12.7C3394,525.5,3388.4,586,3388.4,586z"/>
	<path class="st3" d="M7310.5,586c-3.5,30.9-16.9,55.8-32.1,83l-2.8,4c-31.7,52.7-80.4,107.5-158.2,145.9
		c-38.1,18.8-81.9,34.8-134.9,42.1c0,0,2.7,1.8,4.9,3.3c13.8,9.7,69.7,47.7,113.5,127.6c34.3,62.5,59.8,148.6,56.8,258.3
		c0,1-0.1,2-0.1,3.1c0.4,12.5-1.7,114.5-58.3,192.2c-45.5,62.4-118.1,118.5-217.5,141.1l74.8,92c5.3,6.7,1.6,16.4-7,16.4h-650.9
		c-0.4,0-0.7,0-1.1-0.1l0,0c-2.6-0.3-5.1-1.6-6.7-3.7l-351.2-426.6l-5.4-6.6l-273.3,212.6c-1.8,1.4-4,2.1-6.1,2.1l-490.2,0.3
		c-4.8,0-8.9-3.3-9.9-8l-19.8-92.9l-243.9,319.6c-1.6,2.1-4.1,3.3-6.7,3.3h-781.9c-4.7,0-8.4-3.8-8.4-8.4c0-1.7,0.5-3.4,1.5-4.8
		l845.7-1206.5l-80.6-375.4c-1.2-5.5,2.3-10.8,7.8-12.1c0.7-0.2,1.4-0.3,2.2-0.3l654.5-1.8c4.6,0,8.7,3.1,9.9,7.6l183.7,699.6
		l270.3-321.5c3.6-4.3,10-4.9,14.3-1.3c0.5,0.5,1,0.9,1.4,1.4l169,214.3l1,1.3l239.1-596.5c0.5-1.4,1.4,0.2,2.5-0.8l0,0
		c1.1-0.7,2.4-4,3.9-4h654.3c2.3,0.5,4.2,1.1,5,1.3h0.1c0.1,0,0.2,0.1,0.2,0.1h0.1c3.6,1.5,14.7,6.7,14.8,6.8
		c0.1,0.1,103.1,42.3,163.2,158.8c34.6,67.1,58,154.3,58,256.2v12.7C7316.1,525.5,7310.5,586,7310.5,586z"/>
	
		<linearGradient id="SVGID_1_" gradientUnits="userSpaceOnUse" x1="3034.6533" y1="-1037.4067" x2="3034.6533" y2="-301.2015" gradientTransform="matrix(1 0 0 -1 0 559)">
		<stop  offset="0" style="stop-color:#FFFFFF;stop-opacity:0"/>
		<stop  offset="0.85" style="stop-color:#000000"/>
	</linearGradient>
	<path class="st4" d="M3235.4,1252c0,0-0.4,19.3-2.6,40.3c-1.4,12.8-3.7,29-5.9,39.2c-11.9,56.8-38.1,106-73.7,143.1
		c-30.7,32.1-62.1,57.3-99.2,77c-110.6,58.7-220.6,42.9-220.6,42.9l161.9-721.9l48.2-9.9l13.1-2.5c0.8,0.1,1.5,0.3,2.3,0.5
		c0.4,0.1,0.7,0.2,1.2,0.2c16.4,10.9,31.9,23.2,46.3,36.8c16.4,16,31.5,33.2,45.2,51.6c7.9,10.8,15.1,22,21.8,33.5
		c32.4,54.2,48.4,112.1,56.6,167.5C3234.9,1184.1,3236.7,1218.1,3235.4,1252z"/>
	
		<linearGradient id="SVGID_2_" gradientUnits="userSpaceOnUse" x1="2789.9312" y1="-1298.7572" x2="1906.144" y2="-36.5747" gradientTransform="matrix(1 0 0 -1 0 559)">
		<stop  offset="0" style="stop-color:#FFFFFF;stop-opacity:0"/>
		<stop  offset="0.8" style="stop-color:#000000"/>
	</linearGradient>
	<polygon class="st5" points="2073,478.7 3026.7,1692 2372.9,1692 2015.1,1255 	"/>
	
		<linearGradient id="SVGID_3_" gradientUnits="userSpaceOnUse" x1="908.9543" y1="414.9263" x2="1666.8938" y2="-488.3405" gradientTransform="matrix(1 0 0 -1 0 559)">
		<stop  offset="0" style="stop-color:#FFFFFF;stop-opacity:0"/>
		<stop  offset="0.85" style="stop-color:#000000"/>
	</linearGradient>
	<path class="st6" d="M1234.3,1410.3l562.8-612.4l-181.5-688.5c-1.1-4.2-5-7.3-9.4-7.2H958.9L1234.3,1410.3z"/>
	
		<linearGradient id="SVGID_4_" gradientUnits="userSpaceOnUse" x1="461.4664" y1="-523.7466" x2="1287.5801" y2="-1703.5618" gradientTransform="matrix(1 0 0 1 0 2378.54)">
		<stop  offset="0" style="stop-color:#FFFFFF;stop-opacity:0"/>
		<stop  offset="0.8" style="stop-color:#000000"/>
	</linearGradient>
	<polygon class="st7" points="195.3,1668.4 1020.6,488.1 1206.9,1358.4 965.2,1668.4 	"/>
	
		<linearGradient id="SVGID_5_" gradientUnits="userSpaceOnUse" x1="2963.7632" y1="-614.2772" x2="3351.6167" y2="-362.4019" gradientTransform="matrix(1 0 0 1 -6.554202e-02 1013.7476)">
		<stop  offset="0.15" style="stop-color:#000000"/>
		<stop  offset="1" style="stop-color:#FFFFFF;stop-opacity:0"/>
	</linearGradient>
	<path class="st8" d="M3376.9,580.3c-3.3,29.4-16.1,53.1-30.5,78.9l-2.6,3.8c-30.2,50.1-76.5,102.3-150.5,138.8
		c-25.4,12.6-53.4,23.7-85.1,31.6l-103,19.3l149.7-747.6c34.5,11.2,120.1,57.1,172.2,158.2c32.9,63.8,55.1,146.7,55.1,243.7v12.1
		C3382.3,522.8,3376.9,580.3,3376.9,580.3z"/>
</g>
</svg>
